<svg width="36" height="35" viewBox="0 0 36 35" fill="none" xmlns="http://www.w3.org/2000/svg">
<path d="M13.6362 32.5458C14.4395 32.5458 15.0907 31.8946 15.0907 31.0913C15.0907 30.2879 14.4395 29.6367 13.6362 29.6367C12.8329 29.6367 12.1816 30.2879 12.1816 31.0913C12.1816 31.8946 12.8329 32.5458 13.6362 32.5458Z" stroke="#787878" stroke-width="3" stroke-linecap="round" stroke-linejoin="round"/>
<path d="M29.6362 32.5458C30.4395 32.5458 31.0907 31.8946 31.0907 31.0913C31.0907 30.2879 30.4395 29.6367 29.6362 29.6367C28.8329 29.6367 28.1816 30.2879 28.1816 31.0913C28.1816 31.8946 28.8329 32.5458 29.6362 32.5458Z" stroke="#787878" stroke-width="3" stroke-linecap="round" stroke-linejoin="round"/>
<path d="M2 2H7.81818L11.7164 21.4764C11.8494 22.146 12.2137 22.7476 12.7455 23.1757C13.2774 23.6038 13.9428 23.8313 14.6255 23.8182H28.7636C29.4463 23.8313 30.1117 23.6038 30.6436 23.1757C31.1754 22.7476 31.5397 22.146 31.6727 21.4764L34 9.27273H9.27273" stroke="#787878" stroke-width="3" stroke-linecap="round" stroke-linejoin="round"/>
</svg>
